<?xml version="1.0" standalone="no"?>
<!DOCTYPE svg PUBLIC "-//W3C//DTD SVG 20010904//EN"
 "http://www.w3.org/TR/2001/REC-SVG-20010904/DTD/svg10.dtd">
<svg version="1.0" xmlns="http://www.w3.org/2000/svg"
 width="46.000000pt" height="46.000000pt" viewBox="0 0 46.000000 46.000000"
 preserveAspectRatio="xMidYMid meet">

<g transform="translate(0.000000,46.000000) scale(0.100000,-0.100000)"
fill="#000000" stroke="none">
<path d="M156 446 c-22 -8 -51 -24 -65 -34 -39 -28 -80 -101 -87 -152 -6 -48
10 -130 26 -130 6 0 6 10 0 26 -15 37 -12 116 5 157 18 44 69 96 112 113 73
31 198 6 205 -40 4 -28 42 -29 46 -1 2 16 -10 25 -54 44 -69 30 -137 36 -188
17z"/>
<path d="M151 378 c-81 -44 -112 -139 -71 -222 55 -114 218 -126 289 -21 98
145 -65 325 -218 243z m69 -43 c0 -41 -2 -45 -25 -45 -18 0 -25 5 -25 19 0 16
35 71 46 71 2 0 4 -20 4 -45z m70 -26 c0 -14 -7 -19 -25 -19 -23 0 -25 3 -25
48 l1 47 24 -28 c14 -15 25 -37 25 -48z m-126 34 c-7 -16 -14 -34 -14 -40 0
-8 -13 -13 -30 -13 -27 0 -30 2 -20 19 11 21 58 61 71 61 4 0 1 -12 -7 -27z
m160 6 c14 -11 31 -29 36 -40 10 -17 7 -19 -20 -19 -17 0 -30 5 -30 13 0 6 -7
24 -14 40 -18 32 -8 35 28 6z m-184 -120 c0 -49 -1 -50 -27 -47 -24 2 -29 8
-31 36 -5 47 3 62 33 62 23 0 25 -3 25 -51z m80 0 c0 -49 -1 -50 -27 -47 -24
2 -29 8 -31 36 -5 47 3 62 33 62 23 0 25 -3 25 -51z m75 1 c0 -42 -2 -45 -27
-48 -27 -3 -28 -2 -28 48 0 50 1 51 28 48 25 -3 27 -6 27 -48z m80 0 c0 -42
-2 -45 -27 -48 -27 -3 -28 -2 -28 48 0 50 1 51 28 48 25 -3 27 -6 27 -48z
m-225 -72 c0 -7 7 -25 14 -40 8 -16 11 -28 7 -28 -13 0 -60 40 -71 61 -10 17
-7 19 20 19 17 0 30 -5 30 -12z m70 -35 l-1 -48 -24 28 c-33 37 -33 67 0 67
23 0 25 -3 25 -47z m70 28 c0 -11 -11 -33 -25 -48 l-24 -28 -1 48 c0 44 2 47
25 47 18 0 25 -5 25 -19z m70 0 c-11 -21 -58 -61 -71 -61 -4 0 -1 12 7 28 7
15 14 33 14 40 0 7 13 12 30 12 27 0 30 -2 20 -19z"/>
<path d="M430 304 c18 -46 12 -117 -15 -171 -33 -66 -90 -105 -163 -111 -67
-6 -139 20 -152 54 -11 27 -22 30 -40 9 -13 -16 -6 -35 15 -35 8 0 29 -9 48
-20 69 -41 166 -36 238 13 44 30 87 101 95 157 6 48 -10 130 -26 130 -6 0 -6
-10 0 -26z"/>
</g>
</svg>
